HIERARCHY
ROOT Hips
{
 OFFSET 0.000000 0.000000 0.000000
 CHANNELS 6 Xposition Yposition Zposition Yrotation Xrotation Zrotation
 JOINT Chest
 {
  OFFSET 0.000000 9.585900 0.002600
  CHANNELS 3 Yrotation Xrotation Zrotation
  JOINT Chest2
  {
   OFFSET 0.000000 9.601200 -0.005300
   CHANNELS 3 Yrotation Xrotation Zrotation
   JOINT Chest3
   {
    OFFSET 0.000000 9.561800 0.000000
    CHANNELS 3 Yrotation Xrotation Zrotation
    JOINT Chest4
    {
     OFFSET 0.000000 9.552100 0.000000
     CHANNELS 3 Yrotation Xrotation Zrotation
     JOINT Neck
     {
      OFFSET 0.000000 14.453000 0.000000
      CHANNELS 3 Yrotation Xrotation Zrotation
      JOINT Head
      {
       OFFSET 0.000000 8.936500 -0.011300
       CHANNELS 3 Yrotation Xrotation Zrotation
       End Site
       {
        OFFSET 0.000000 17.073600 -0.006000
       }
      }
     }
     JOINT RightCollar
     {
      OFFSET -2.921100 9.558500 0.000000
      CHANNELS 3 Yrotation Xrotation Zrotation
      JOINT RightShoulder
      {
       OFFSET -13.519700 0.000000 0.000000
       CHANNELS 3 Yrotation Xrotation Zrotation
       JOINT RightElbow
       {
        OFFSET 0.000000 -29.696600 0.000000
        CHANNELS 3 Yrotation Xrotation Zrotation
        JOINT RightWrist
        {
         OFFSET 0.000000 -24.004700 0.000000
         CHANNELS 3 Yrotation Xrotation Zrotation
         End Site
         {
          OFFSET 0.000000 -17.728500 0.000000
         }
        }
       }
      }
     }
     JOINT LeftCollar
     {
      OFFSET 2.921100 9.558500 0.000000
      CHANNELS 3 Yrotation Xrotation Zrotation
      JOINT LeftShoulder
      {
       OFFSET 13.519700 0.000000 0.000000
       CHANNELS 3 Yrotation Xrotation Zrotation
       JOINT LeftElbow
       {
        OFFSET 0.000000 -29.696600 0.000000
        CHANNELS 3 Yrotation Xrotation Zrotation
        JOINT LeftWrist
        {
         OFFSET 0.000000 -24.004700 0.000000
         CHANNELS 3 Yrotation Xrotation Zrotation
         End Site
         {
          OFFSET 0.000000 -17.728500 0.000000
         }
        }
       }
      }
     }
    }
   }
  }
 }
 JOINT RightHip
 {
  OFFSET -7.771700 -0.012900 -0.001300
  CHANNELS 3 Yrotation Xrotation Zrotation
  JOINT RightKnee
  {
   OFFSET 0.000000 -40.869800 0.001200
   CHANNELS 3 Yrotation Xrotation Zrotation
   JOINT RightAnkle
   {
    OFFSET 0.000000 -39.717900 0.002100
    CHANNELS 3 Yrotation Xrotation Zrotation
    JOINT RightToe
    {
     OFFSET 0.000000 -4.965400 11.033500
     CHANNELS 3 Yrotation Xrotation Zrotation
     End Site
     {
      OFFSET 0.000000 -1.423100 5.872300
     }
    }
   }
  }
 }
 JOINT LeftHip
 {
  OFFSET 7.771700 -0.012900 -0.001300
  CHANNELS 3 Yrotation Xrotation Zrotation
  JOINT LeftKnee
  {
   OFFSET 0.000000 -40.869800 0.001200
   CHANNELS 3 Yrotation Xrotation Zrotation
   JOINT LeftAnkle
   {
    OFFSET 0.000000 -39.717900 0.002100
    CHANNELS 3 Yrotation Xrotation Zrotation
    JOINT LeftToe
    {
     OFFSET 0.000000 -4.965400 11.033500
     CHANNELS 3 Yrotation Xrotation Zrotation
     End Site
     {
      OFFSET 0.000000 -1.423100 5.872300
     }
    }
   }
  }
 }
}
MOTION
Frames: 11
Frame Time: 0.008333
-143.450759 49.130099 18.397816 176.109264 -31.474521 -3.961273 -0.162897 18.911388 1.794878 -0.020314 2.229562 0.171221 -0.002942 3.669587 0.274071 0.023858 16.461372 1.271147 1.141229 17.510140 -5.373112 3.950977 -3.027087 -10.378916 -1.847552 -1.987711 -4.260602 5.947686 -7.640932 -12.342433 -36.217393 -40.712921 88.863392 2.140985 1.842764 -8.192613 0.812204 -1.549005 3.239385 -8.279493 -2.308081 12.902290 74.089100 -68.803472 -113.734531 2.576384 11.010552 5.545909 -5.886026 -53.199622 -6.295085 -146.447685 82.306251 -133.923575 -30.198770 -2.896940 -3.854524 -0.254283 -12.464021 0.199983 -15.690215 -54.707962 19.907690 -75.085490 65.737179 -79.789863 30.289599 6.556939 14.775226 0.327074 -0.349962 0.154481
-143.468340 49.126093 18.400923 176.110942 -31.468717 -3.960163 -0.182147 18.911833 1.790819 -0.016138 2.228057 0.170607 -0.043115 3.686372 0.287374 0.030247 16.452759 1.266522 1.163545 17.518448 -5.344092 3.977535 -3.008263 -10.303137 -1.848304 -1.974622 -4.263345 5.940328 -7.603607 -12.296013 -36.213542 -40.706851 88.851851 2.132527 1.834622 -8.218850 0.819060 -1.547300 3.234129 -8.253285 -2.320096 12.895739 74.033251 -68.830158 -113.708557 2.562690 11.026646 5.487673 -5.807999 -53.224657 -6.338685 -146.513660 82.300871 -133.997093 -30.179479 -2.860890 -3.860047 -0.237591 -12.459011 0.227565 -15.678689 -54.721531 19.900905 -75.070326 65.729139 -79.777053 30.285140 6.560694 14.784485 0.330896 -0.344011 0.155060
-143.484732 49.122752 18.404238 176.109276 -31.468353 -3.959147 -0.186234 18.913549 1.790085 -0.022216 2.230617 0.172423 -0.052550 3.697239 0.292286 0.012273 16.450833 1.274209 1.186976 17.527581 -5.316520 4.000642 -3.003042 -10.256049 -1.847363 -1.960452 -4.267091 5.938114 -7.571154 -12.256815 -36.199963 -40.747576 88.843562 2.128253 1.828730 -8.234826 0.819449 -1.541547 3.233309 -8.231924 -2.331937 12.922166 74.062861 -68.801443 -113.740757 2.537192 11.054348 5.420777 -5.737399 -53.245982 -6.369879 -146.522661 82.294496 -134.018080 -30.189577 -2.818355 -3.844572 -0.235875 -12.459431 0.243209 -15.654666 -54.730717 19.886632 -75.070560 65.720953 -79.769693 30.274811 6.559680 14.785012 0.342064 -0.332594 0.161884
-143.500327 49.119230 18.409783 176.108091 -31.458795 -3.957969 -0.203626 18.916391 1.787164 -0.023931 2.231775 0.173893 -0.043148 3.693227 0.290956 -0.010830 16.460086 1.287436 1.209072 17.535703 -5.288675 4.021689 -3.004026 -10.207634 -1.845047 -1.948452 -4.270319 5.936244 -7.545434 -12.222629 -36.188142 -40.785342 88.837900 2.059652 1.788687 -8.280706 0.799904 -1.514485 3.252948 -8.193611 -2.346462 12.956961 74.179354 -68.753904 -113.856699 2.522781 11.066111 5.376457 -5.668213 -53.271024 -6.401825 -146.513777 82.293560 -134.020600 -30.168762 -2.780051 -3.834745 -0.298662 -12.452891 0.270345 -15.653977 -54.741843 19.888806 -75.027691 65.724242 -79.737947 30.275704 6.558246 14.804935 0.333278 -0.322881 0.157718
-143.511320 49.116273 18.417583 176.098283 -31.443217 -3.974284 -0.211587 18.933749 1.814429 -0.014437 2.216907 0.168060 -0.038132 3.685957 0.288903 -0.025410 16.476673 1.301763 1.221601 17.523157 -5.287652 4.041053 -2.998066 -10.131171 -1.837175 -1.959890 -4.282919 5.920764 -7.511158 -12.181919 -36.196349 -40.781673 88.836724 2.036623 1.756187 -8.306929 0.786991 -1.509303 3.263173 -8.159343 -2.375038 12.936852 74.153865 -68.771642 -113.849600 2.534654 11.046563 5.375089 -5.566650 -53.297391 -6.426574 -146.460259 82.289363 -133.942014 -30.163379 -2.739419 -3.829874 -0.240294 -12.447968 0.275222 -15.664859 -54.758228 19.921110 -75.012905 65.723747 -79.719669 30.279317 6.554219 14.809555 0.325683 -0.311958 0.161738
-143.524312 49.115056 18.424566 176.090293 -31.437468 -3.972772 -0.210604 18.936501 1.818937 -0.020004 2.227686 0.172456 -0.041687 3.690593 0.290646 -0.064813 16.520334 1.329467 1.253852 17.472042 -5.317885 4.059664 -2.995790 -10.058013 -1.811075 -1.983961 -4.303262 5.920073 -7.510661 -12.169498 -36.200589 -40.783926 88.849110 2.062647 1.753567 -8.322589 0.818970 -1.549472 3.236735 -8.152222 -2.379470 12.947593 74.190123 -68.768162 -113.884468 2.523813 11.044406 5.334170 -5.513395 -53.313046 -6.437309 -146.393906 82.317830 -133.906593 -30.179083 -2.669841 -3.794870 -0.219261 -12.453636 0.263574 -15.621567 -54.783491 19.892433 -75.037595 65.729051 -79.722243 30.279125 6.566807 14.814197 0.327163 -0.317583 0.162542
-143.533890 49.115871 18.431259 176.076499 -31.441664 -3.982000 -0.200646 18.949396 1.837701 -0.044570 2.261235 0.187681 -0.029407 3.674387 0.282296 -0.071025 16.526348 1.340403 1.264011 17.482905 -5.264637 4.077514 -3.018818 -10.048345 -1.813107 -1.970610 -4.303360 5.918572 -7.517655 -12.159397 -36.227643 -40.742614 88.879964 2.128902 1.765032 -8.340057 0.825331 -1.556602 3.234340 -8.158344 -2.358844 12.973807 74.243254 -68.764215 -113.939608 2.508680 11.031877 5.302724 -5.505001 -53.311817 -6.419412 -146.413467 82.343101 -133.943691 -30.167427 -2.640905 -3.782433 -0.220403 -12.448706 0.255701 -15.611085 -54.785785 19.902428 -75.052559 65.730900 -79.726584 30.275487 6.566159 14.814932 0.332674 -0.312987 0.161267
-143.540740 49.116209 18.441335 176.061247 -31.428287 -4.001403 -0.194259 18.954875 1.870297 -0.045229 2.262283 0.188307 -0.032568 3.679854 0.286120 -0.070700 16.531406 1.350952 1.273742 17.485584 -5.226187 4.087896 -3.032578 -10.022987 -1.812691 -1.973112 -4.315784 5.909204 -7.512735 -12.138117 -36.232150 -40.756407 88.889760 2.115828 1.750156 -8.350694 0.832874 -1.575077 3.219039 -8.165198 -2.344862 12.981024 74.255103 -68.766942 -113.946920 2.508676 11.004168 5.302376 -5.459782 -53.321149 -6.415978 -146.378495 82.355052 -133.883875 -30.161669 -2.636623 -3.762933 -0.241234 -12.429426 0.244353 -15.623980 -54.800613 19.941208 -75.035115 65.740310 -79.701501 30.280316 6.574870 14.823582 0.324087 -0.312345 0.158147
-143.549372 49.117673 18.450560 176.066829 -31.420690 -4.013245 -0.228066 18.983432 1.883245 -0.030511 2.247509 0.182922 -0.046508 3.707239 0.301185 -0.056319 16.515905 1.349279 1.282772 17.487543 -5.189246 4.093134 -3.046606 -9.996645 -1.808420 -1.995737 -4.336994 5.902622 -7.507161 -12.125190 -36.250420 -40.748519 88.904407 2.105892 1.735761 -8.358886 0.835351 -1.596398 3.205921 -8.174469 -2.321674 12.988633 74.346077 -68.759184 -114.022298 2.501739 11.022371 5.308915 -5.390573 -53.323749 -6.452846 -146.318886 82.365857 -133.787108 -30.209314 -2.632333 -3.744688 -0.231517 -12.413155 0.238017 -15.627624 -54.811649 19.946695 -74.993894 65.741842 -79.657536 30.298276 6.594770 14.841010 0.308557 -0.318407 0.154002
-143.555297 49.119978 18.459568 176.041860 -31.418945 -4.016768 -0.218534 18.997294 1.901327 -0.030136 2.250607 0.184483 -0.045897 3.712111 0.303729 -0.052029 16.524883 1.360307 1.286931 17.468766 -5.191366 4.102517 -3.044735 -9.935325 -1.815360 -1.991428 -4.342136 5.908257 -7.530874 -12.130108 -36.263756 -40.741710 88.912056 2.084721 1.726002 -8.337082 0.836496 -1.614324 3.210595 -8.172350 -2.309293 12.974892 74.339010 -68.765823 -114.007898 2.510613 11.015986 5.329066 -5.367478 -53.326075 -6.439820 -146.326961 82.394977 -133.797656 -30.212595 -2.607130 -3.745913 -0.221386 -12.409564 0.235240 -15.614961 -54.815353 19.962956 -74.989709 65.741834 -79.644781 30.304123 6.596598 14.845436 0.305974 -0.315482 0.150140
-143.559080 49.122146 18.469097 176.010624 -31.414037 -4.020345 -0.202223 19.005743 1.923105 -0.030207 2.253915 0.185900 -0.045934 3.717272 0.306066 -0.047458 16.527210 1.364792 1.295558 17.478451 -5.152919 4.109308 -3.059638 -9.913587 -1.816602 -1.987228 -4.342503 5.884222 -7.519907 -12.087863 -36.231436 -40.799021 88.890120 2.077678 1.728341 -8.328015 0.838073 -1.625097 3.217646 -8.166929 -2.302156 12.962469 74.291843 -68.770488 -113.961110 2.541675 11.048562 5.418327 -5.334395 -53.328763 -6.431860 -146.348893 82.421196 -133.811459 -30.190772 -2.590722 -3.761756 -0.207894 -12.401835 0.239017 -15.605248 -54.820803 19.989355 -74.982758 65.739467 -79.630786 30.313920 6.599835 14.852431 0.298114 -0.314684 0.144929
